<?xml version="1.0" standalone="no"?>
<!DOCTYPE svg PUBLIC "-//W3C//DTD SVG 20010904//EN"
 "http://www.w3.org/TR/2001/REC-SVG-20010904/DTD/svg10.dtd">
<svg version="1.0" xmlns="http://www.w3.org/2000/svg"
 width="16.000000pt" height="16.000000pt" viewBox="0 0 16.000000 16.000000"
 preserveAspectRatio="xMidYMid meet">
<metadata>
Created by potrace 1.11, written by Peter Selinger 2001-2013
</metadata>
<g transform="translate(0.000000,16.000000) scale(0.003200,-0.003200)"
fill="#000000" stroke="none">
<path d="M0 2500 l0 -2500 2500 0 2500 0 0 2500 0 2500 -2500 0 -2500 0 0
-2500z m4260 1739 c55 -56 100 -104 100 -108 0 -4 -18 -24 -40 -44 -22 -19
-40 -40 -40 -46 0 -6 -4 -11 -10 -11 -5 0 -19 -9 -30 -20 -11 -11 -20 -24 -20
-30 0 -5 -3 -10 -7 -10 -13 0 -73 -57 -73 -69 0 -6 -7 -11 -15 -11 -8 0 -15
-7 -15 -15 0 -8 -3 -15 -8 -15 -12 0 -72 -58 -72 -69 0 -6 -4 -11 -10 -11 -12
0 -50 -36 -50 -48 0 -14 -44 -36 -48 -23 -2 6 -16 11 -31 11 -35 0 -84 50 -85
87 -1 23 -6 28 -25 28 -34 0 -38 23 -5 27 42 5 43 28 1 28 -46 0 -57 -16 -55
-83 1 -55 2 -57 29 -57 37 0 93 -53 86 -81 -3 -12 0 -22 9 -26 21 -8 17 -26
-8 -42 -16 -10 -23 -10 -26 -2 -2 6 -15 11 -28 11 -14 0 -27 7 -30 15 -4 8
-10 15 -14 15 -10 0 -100 91 -100 101 0 16 -26 9 -44 -10 -22 -24 -13 -41 20
-41 13 0 24 -5 24 -11 0 -14 25 -39 39 -39 6 0 11 -7 11 -15 0 -8 6 -15 14
-15 9 0 17 -15 21 -40 7 -39 19 -52 28 -27 2 6 8 9 12 5 5 -4 -4 -19 -18 -32
-15 -14 -27 -28 -27 -32 0 -8 -32 -33 -42 -34 -5 0 -8 17 -8 37 0 52 -49 103
-99 103 -42 0 -50 -5 -80 -47 -22 -32 -22 -33 -4 -65 31 -55 51 -69 99 -71 24
-1 44 -5 44 -9 0 -5 -4 -8 -10 -8 -5 0 -10 -7 -10 -15 0 -8 -4 -15 -9 -15 -5
0 -34 -25 -65 -56 -35 -35 -56 -50 -56 -40 0 9 4 16 9 16 22 0 23 42 2 61 -12
11 -21 31 -21 44 0 22 -4 25 -40 25 -33 0 -40 3 -40 20 0 11 -7 20 -15 20 -8
0 -15 5 -15 10 0 6 -7 10 -15 10 -8 0 -15 -4 -15 -10 0 -5 -6 -10 -14 -10 -7
0 -25 -15 -40 -34 -30 -41 -37 -122 -11 -132 8 -4 15 -10 15 -15 0 -15 39 -49
55 -49 8 0 24 -6 35 -12 16 -10 24 -10 41 0 32 20 35 6 5 -21 -14 -13 -26 -29
-26 -36 0 -6 -7 -11 -15 -11 -8 0 -15 -7 -15 -15 0 -8 -3 -15 -8 -15 -12 0
-72 -58 -72 -69 0 -6 -4 -11 -10 -11 -5 0 -19 -9 -30 -20 -11 -11 -20 -24 -20
-30 0 -5 -3 -10 -7 -10 -13 0 -73 -57 -73 -69 0 -6 -7 -11 -15 -11 -8 0 -15
-7 -15 -15 0 -8 -3 -15 -8 -15 -12 0 -72 -58 -72 -69 0 -6 -4 -11 -10 -11 -5
0 -19 -9 -30 -20 -11 -11 -20 -24 -20 -30 0 -5 -3 -10 -7 -10 -13 0 -73 -57
-73 -69 0 -6 -7 -11 -15 -11 -8 0 -15 -7 -15 -15 0 -8 -3 -15 -8 -15 -12 0
-72 -58 -72 -69 0 -6 -4 -11 -10 -11 -13 0 -50 -37 -50 -50 0 -5 -3 -10 -7
-10 -13 0 -73 -57 -73 -69 0 -6 -7 -11 -15 -11 -8 0 -15 -7 -15 -15 0 -8 -3
-15 -8 -15 -12 0 -72 -58 -72 -69 0 -6 -4 -11 -10 -11 -13 0 -50 -37 -50 -50
0 -5 -3 -10 -7 -10 -13 0 -73 -57 -73 -69 0 -6 -7 -11 -15 -11 -8 0 -15 -7
-15 -15 0 -8 -3 -15 -8 -15 -12 0 -72 -58 -72 -69 0 -6 -4 -11 -10 -11 -6 0
-19 -9 -30 -20 -11 -11 -20 -24 -20 -30 0 -5 -3 -10 -7 -10 -13 0 -73 -57 -73
-69 0 -6 -7 -11 -15 -11 -8 0 -15 -7 -15 -15 0 -8 -3 -15 -8 -15 -12 0 -72
-58 -72 -69 0 -6 -5 -11 -10 -11 -13 0 -50 -37 -50 -50 0 -5 -3 -10 -7 -10
-13 0 -73 -57 -73 -69 0 -6 -7 -11 -15 -11 -8 0 -15 -7 -15 -15 0 -8 -3 -15
-8 -15 -12 0 -72 -58 -72 -69 0 -6 -5 -11 -10 -11 -12 0 -50 -36 -50 -47 0 -5
-13 -17 -29 -27 -58 -39 -58 -50 8 -116 33 -33 65 -60 71 -60 5 0 10 -4 10
-10 0 -12 229 -240 241 -240 5 0 9 -5 9 -10 0 -11 36 -50 46 -50 7 0 34 -27
34 -34 0 -7 69 -76 76 -76 10 0 34 -28 34 -39 0 -6 4 -11 10 -11 12 0 80 -68
80 -80 0 -6 5 -10 10 -10 13 0 70 -57 70 -70 0 -6 4 -10 9 -10 10 0 631 -614
631 -624 0 -3 -679 -6 -1510 -6 l-1510 0 0 1500 c0 825 3 1500 7 1500 7 0 513
-511 513 -517 0 -8 41 -43 50 -43 5 0 10 -4 10 -8 0 -12 88 -102 100 -102 5 0
10 -4 10 -9 0 -6 131 -141 290 -301 160 -160 290 -295 290 -301 0 -5 5 -9 11
-9 12 0 69 -55 69 -67 0 -4 10 -13 23 -19 21 -9 115 82 1377 1347 957 958
1362 1357 1378 1358 16 1 51 -28 122 -100z m116 -86 c-10 -10 -19 5 -10 18 6
11 8 11 12 0 2 -7 1 -15 -2 -18z m-466 -473 c0 -5 -4 -10 -10 -10 -5 0 -10 5
-10 10 0 6 5 10 10 10 6 0 10 -4 10 -10z m-110 -110 c0 -5 -5 -10 -11 -10 -5
0 -7 5 -4 10 3 6 8 10 11 10 2 0 4 -4 4 -10z m-187 -53 c30 -39 21 -67 -21
-67 -41 1 -62 22 -62 64 0 33 2 36 29 36 21 0 36 -9 54 -33z m-253 -117 c0 -5
9 -10 20 -10 22 0 26 -10 9 -27 -16 -16 -2 -33 27 -33 21 0 24 -5 24 -34 0
-22 -6 -36 -16 -40 -27 -11 -62 -7 -78 9 -8 8 -19 15 -25 15 -6 0 -11 6 -11
14 0 7 -7 19 -15 26 -20 17 -19 49 3 71 18 19 62 25 62 9z"/>
<path d="M907 980 c-9 -11 -17 -29 -17 -41 0 -11 -7 -27 -15 -35 -39 -40 -3
-57 57 -27 18 9 39 19 47 23 8 3 19 14 25 23 9 13 4 22 -24 46 -42 36 -50 37
-73 11z"/>
</g>
</svg>
